<?xml version="1.0" encoding="UTF-8" standalone="no"?>
<svg width="596px" height="154px" viewBox="0 0 596 154" version="1.1" xmlns="http://www.w3.org/2000/svg" xmlns:xlink="http://www.w3.org/1999/xlink">
    <!-- Generator: Sketch 45.1 (43504) - http://www.bohemiancoding.com/sketch -->
    <title>OSD Logo Aubergine</title>
    <desc>Created with Sketch.</desc>
    <defs>
        <polygon id="path-1" points="0.0004 153.353 595.06 153.353 595.06 0 0.0004 0"></polygon>
    </defs>
    <g id="Symbols" stroke="none" stroke-width="1" fill="none" fill-rule="evenodd">
        <g id="OSD-Logo-Aubergine">
            <g id="Page-1">
                <mask id="mask-2" fill="white">
                    <use xlink:href="#path-1"></use>
                </mask>
                <g id="Clip-2"></g>
                <path d="M525.7294,141.8824 C526.5134,142.3664 527.1544,143.0064 527.6334,143.7904 C528.1184,144.5744 528.3624,145.5244 528.3624,146.6084 C528.3624,148.3514 527.6114,149.8034 526.1304,150.9274 C524.6684,152.0334 522.7754,152.5964 520.5054,152.5964 C519.0364,152.5964 517.7584,152.4034 516.7084,152.0294 C515.6474,151.6474 514.7664,151.1444 514.0884,150.5224 C513.4154,149.9034 512.8894,149.2364 512.5164,148.5294 C512.1944,147.9314 511.9584,147.2384 511.7374,146.2844 L511.6634,145.9534 L514.1714,145.9534 L514.2454,146.2764 C514.3364,146.6584 514.3364,146.6584 514.4114,146.8664 L514.5124,147.1754 C514.6884,147.7004 515.0104,148.2404 515.5034,148.8204 C515.9474,149.3424 516.5734,149.7794 517.3624,150.1114 C518.1604,150.4484 519.1604,150.6234 520.3404,150.6234 C522.0234,150.6234 523.4064,150.2404 524.4534,149.4884 C525.4854,148.7464 525.9834,147.8164 525.9834,146.6504 C525.9834,145.6394 525.5774,144.8514 524.7434,144.2344 C523.8724,143.5884 522.2944,142.9654 520.0584,142.3804 C518.9204,142.0714 518.0124,141.7954 517.2884,141.5314 C516.5454,141.2694 515.8544,140.9234 515.2274,140.5044 C514.5864,140.0744 514.0654,139.5304 513.6874,138.8854 C513.2994,138.2314 513.1064,137.4524 513.1064,136.5624 C513.1064,134.7964 513.7934,133.3614 515.1494,132.3014 C516.4864,131.2644 518.2754,130.7384 520.4644,130.7384 C522.2574,130.7384 523.8074,131.1454 525.0704,131.9434 C526.4164,132.8004 528.0254,134.7594 528.3624,137.0234 L528.4034,137.3374 L525.9184,137.3374 L525.8734,137.1194 C525.4584,135.1464 524.5024,134.2204 523.8214,133.6984 C522.9684,133.0394 521.7964,132.7074 520.3404,132.7074 C518.9064,132.7074 517.7124,133.0444 516.7864,133.7034 C515.8814,134.3444 515.4434,135.1334 515.4434,136.1144 C515.4434,137.1244 515.7894,137.8804 516.5034,138.4294 C517.2424,139.0004 518.6384,139.5304 520.6534,140.0114 C521.6774,140.2544 522.5944,140.5134 523.3834,140.7764 C524.1804,141.0434 524.9734,141.4164 525.7294,141.8824 L525.7294,141.8824 Z M107.4554,-0.0006 L107.4554,54.8074 L101.4544,54.8074 L101.4544,6.0284 L63.0434,6.0284 L63.0434,70.1594 L107.4554,70.1594 L107.4554,147.0404 L57.0424,147.0404 L57.0424,97.7064 L63.0434,97.7064 L63.0434,141.0104 L101.4544,141.0104 L101.4544,76.1854 L57.0424,76.1854 L57.0424,-0.0006 L107.4554,-0.0006 Z M115.4554,97.9404 L164.4244,97.9404 L164.4244,48.9694 L115.4554,48.9694 L115.4554,97.9404 Z M121.4554,91.9384 L158.4254,91.9384 L158.4254,54.9724 L121.4554,54.9724 L121.4554,91.9384 Z M0.0004,97.9404 L48.9704,97.9404 L48.9704,48.9694 L0.0004,48.9694 L0.0004,97.9404 Z M6.0014,91.9384 L42.9694,91.9384 L42.9694,54.9724 L6.0014,54.9724 L6.0014,91.9384 Z M485.2924,136.6124 C485.2924,137.7334 484.8684,138.5954 483.9974,139.2584 C483.0884,139.9504 481.8394,140.3014 480.2814,140.3014 L474.2964,140.3014 L474.2964,132.9884 L480.9304,132.9884 C482.1994,132.9884 483.2324,133.3394 484.0764,134.0594 C484.8954,134.7504 485.2924,135.5844 485.2924,136.6124 L485.2924,136.6124 Z M483.5224,142.1994 C483.9234,142.0704 484.2604,141.9434 484.5274,141.8184 C484.9284,141.6234 485.3384,141.3524 485.7714,140.9924 C487.1684,139.8584 487.8744,138.3974 487.8744,136.6454 C487.8744,134.8784 487.2144,133.4174 485.9064,132.3074 C484.6194,131.2134 482.9464,130.6654 480.9304,130.6654 L471.7144,130.6654 L471.7144,152.6614 L474.2964,152.6614 L474.2964,142.6524 L480.9674,142.6524 L486.1964,152.6614 L488.9164,152.6614 L483.5224,142.1994 Z M446.3574,141.9974 C446.3574,142.7264 446.2504,143.5974 446.0414,144.5844 C445.8374,145.5564 445.4564,146.5474 444.9044,147.5344 C444.3744,148.4884 443.6014,149.3104 442.6104,149.9694 C441.6354,150.6184 440.3854,150.9464 438.8944,150.9464 C437.8664,150.9464 436.9024,150.7254 436.0304,150.2914 C435.1564,149.8624 434.3864,149.2324 433.7474,148.4144 C433.0914,147.5804 432.5824,146.5844 432.2324,145.4554 C431.8764,144.3174 431.6974,143.0544 431.6974,141.7064 C431.6974,140.3424 431.8724,139.0744 432.2194,137.9354 C432.5614,136.8164 433.0584,135.8424 433.6994,135.0454 C434.3344,134.2574 435.0954,133.6444 435.9674,133.2204 C436.8404,132.8004 437.8244,132.5834 438.8944,132.5834 C440.0294,132.5834 441.0654,132.8004 441.9754,133.2244 C442.8844,133.6494 443.6704,134.2714 444.3084,135.0724 C444.9584,135.8944 445.4664,136.8984 445.8204,138.0504 C446.1774,139.2364 446.3574,140.5594 446.3574,141.9974 L446.3574,141.9974 Z M448.2584,137.2354 C447.7904,135.7964 447.1044,134.5334 446.2234,133.4734 C445.3404,132.4124 444.2664,131.5834 443.0294,131.0114 C440.5534,129.8584 437.4514,129.8724 435.0114,130.9924 C433.7924,131.5554 432.7184,132.3704 431.8164,133.4274 C430.9244,134.4744 430.2334,135.7184 429.7614,137.1294 C429.2924,138.5304 429.0564,140.0844 429.0564,141.7354 C429.0564,143.3714 429.2994,144.9214 429.7794,146.3264 C430.2604,147.7514 430.9514,149.0004 431.8304,150.0424 C432.7184,151.0994 433.7924,151.9184 435.0244,152.4904 C436.2514,153.0624 437.5934,153.3534 439.0114,153.3534 C440.4254,153.3534 441.7614,153.0674 442.9874,152.5054 C444.2064,151.9424 445.2784,151.1314 446.1724,150.0934 C447.0634,149.0564 447.7594,147.8204 448.2444,146.4184 C448.7234,145.0224 448.9674,143.5044 448.9674,141.9104 C448.9674,140.2284 448.7304,138.6544 448.2584,137.2354 L448.2584,137.2354 Z M406.6034,130.6654 L406.6034,133.1374 L399.7244,133.1374 L399.7244,152.6614 L397.1694,152.6614 L397.1694,133.1374 L390.2904,133.1374 L390.2904,130.6654 L406.6034,130.6654 Z M367.7904,146.1104 C367.7904,146.1104 367.2584,148.2174 366.0804,149.6644 C365.6384,150.2044 365.1024,150.7624 364.3954,151.3344 C363.6844,151.9044 362.8244,152.3844 361.8344,152.7674 C360.8274,153.1584 359.7144,153.3534 358.5294,153.3534 C355.6004,153.3534 353.1944,152.3484 351.3784,150.3644 C349.5774,148.3964 348.6624,145.5704 348.6624,141.9704 C348.6624,140.2594 348.8844,138.6644 349.3204,137.2304 C349.7614,135.7824 350.4104,134.5104 351.2494,133.4584 C352.0994,132.3954 353.1244,131.5654 354.2974,130.9974 C355.4764,130.4304 356.7804,130.1454 358.1744,130.1454 C359.3934,130.1454 360.4994,130.3154 361.4634,130.6554 C362.4164,130.9884 363.2424,131.4164 363.9194,131.9244 C364.5904,132.4264 365.0904,132.9884 365.5394,133.4824 C366.7914,134.8614 367.5024,136.9314 367.5024,136.9314 L364.7614,136.9404 L364.4324,136.2944 C364.2324,135.9074 363.9674,135.5104 363.6424,135.1144 C363.3074,134.7034 362.8894,134.2974 362.3984,133.9054 C361.9134,133.5244 361.3194,133.1964 360.6334,132.9434 C359.1384,132.3804 357.0354,132.4074 355.4594,133.1924 C354.6104,133.6114 353.8714,134.2254 353.2684,135.0084 C352.6544,135.8104 352.1744,136.7924 351.8414,137.9314 C351.5034,139.0884 351.3324,140.3974 351.3324,141.8224 C351.3324,144.7414 351.9754,147.0234 353.2444,148.6004 C354.4994,150.1574 356.2404,150.9134 358.5624,150.9134 C359.5494,150.9134 360.4294,150.7674 361.1724,150.4764 C361.9214,150.1914 362.5334,149.8304 362.9904,149.4154 C363.4634,148.9864 363.8384,148.5634 364.1064,148.1534 C364.3874,147.7244 364.6314,147.2854 364.8334,146.8484 L365.1704,146.1194 L367.7904,146.1104 Z M323.3514,141.9974 C323.3514,142.7314 323.2464,143.6024 323.0384,144.5844 C322.8354,145.5524 322.4564,146.5434 321.9054,147.5294 C321.3704,148.4884 320.5954,149.3104 319.6054,149.9694 L319.6044,149.9694 C318.6304,150.6184 317.3814,150.9464 315.8884,150.9464 C314.8634,150.9464 313.8994,150.7254 313.0274,150.2964 C312.1544,149.8624 311.3854,149.2324 310.7424,148.4144 C310.0884,147.5804 309.5794,146.5844 309.2274,145.4554 C308.8744,144.3174 308.6954,143.0544 308.6954,141.7064 C308.6954,140.3374 308.8704,139.0694 309.2154,137.9354 C309.5564,136.8164 310.0544,135.8424 310.6934,135.0454 C311.3294,134.2574 312.0914,133.6444 312.9634,133.2204 C313.8344,132.8004 314.8194,132.5834 315.8884,132.5834 C317.0214,132.5834 318.0594,132.8004 318.9724,133.2244 C319.8774,133.6494 320.6634,134.2714 321.3054,135.0724 C321.9564,135.8894 322.4624,136.8944 322.8134,138.0504 C323.1704,139.2264 323.3514,140.5544 323.3514,141.9974 L323.3514,141.9974 Z M325.2574,137.2354 C324.7854,135.7924 324.0994,134.5284 323.2184,133.4734 C322.3324,132.4074 321.2594,131.5834 320.0264,131.0114 C317.5504,129.8584 314.4534,129.8674 312.0024,130.9924 C310.7824,131.5604 309.7084,132.3754 308.8134,133.4274 C307.9234,134.4744 307.2324,135.7184 306.7594,137.1294 C306.2904,138.5264 306.0514,140.0744 306.0514,141.7354 C306.0514,143.3714 306.2934,144.9164 306.7724,146.3314 C307.2604,147.7564 307.9514,149.0054 308.8244,150.0424 C309.7114,151.0994 310.7874,151.9184 312.0204,152.4904 C313.2474,153.0624 314.5894,153.3534 316.0064,153.3534 C317.4224,153.3534 318.7594,153.0674 319.9804,152.5054 C321.1984,151.9464 322.2714,151.1314 323.1714,150.0884 C324.0614,149.0514 324.7574,147.8164 325.2414,146.4184 C325.7224,145.0224 325.9644,143.5044 325.9644,141.9104 C325.9644,140.2324 325.7264,138.6544 325.2574,137.2354 L325.2574,137.2354 Z M267.6474,133.0494 L272.3314,133.0494 C274.8044,133.0494 276.7234,133.7224 278.0514,135.0594 C278.7864,135.7644 279.3634,136.7194 279.7654,137.8994 C280.1774,139.1074 280.3854,140.4534 280.3854,141.9094 C280.3854,143.2464 280.1924,144.4684 279.8124,145.5524 C279.4394,146.6174 278.8914,147.5254 278.1884,148.2484 C277.5054,148.9374 276.6964,149.4394 275.7844,149.7434 C274.8414,150.0614 273.6404,150.2224 272.2134,150.2224 L267.6474,150.2224 L267.6474,133.0494 Z M282.3054,137.4194 C281.8404,136.0284 281.1584,134.8104 280.2744,133.7954 C279.3884,132.7864 278.3074,132.0024 277.0594,131.4634 C275.8214,130.9334 274.4404,130.6654 272.9524,130.6654 L265.0624,130.6654 L265.0624,152.6604 L272.0374,152.6604 C273.8244,152.6604 275.3594,152.4494 276.5994,152.0384 C277.8654,151.6194 278.9934,150.9454 279.9614,150.0434 C281.9774,148.0834 282.9994,145.3964 282.9994,142.0574 C282.9994,140.3654 282.7654,138.8074 282.3054,137.4194 L282.3054,137.4194 Z M586.7014,87.0794 C585.1624,91.0764 580.3574,100.1724 568.0664,100.1724 C539.6534,100.1724 541.9994,43.5394 568.0664,43.5394 C586.8904,43.5394 589.0064,63.2764 589.0064,71.7914 C589.0064,77.9834 588.2314,83.0774 586.7014,87.0794 L586.7014,87.0794 Z M587.8164,47.6704 C585.4474,44.8344 582.6394,42.6174 579.3884,41.0274 C576.1434,39.4364 572.5884,38.6434 568.7304,38.6434 C565.7424,38.6434 563.1104,39.0714 560.8324,39.9294 C558.5454,40.7914 556.5494,41.9124 554.8384,43.2864 C553.1284,44.6594 551.7004,46.1214 550.5614,47.6704 C549.4214,49.2194 548.1454,51.1104 546.7444,53.3454 L546.7444,40.5754 L541.0824,40.5754 L541.0824,126.5344 L546.7444,126.5344 L546.7444,90.8834 C547.9694,93.2054 548.9794,94.9444 549.7674,96.1074 C550.5614,97.2684 551.6124,98.4524 552.9304,99.6564 C557.5824,103.9534 563.0234,106.1064 569.2554,106.1064 C573.0264,106.1064 576.4944,105.2674 579.6564,103.5894 C582.8144,101.9104 585.5574,99.5224 587.8814,96.4294 C590.2094,93.3354 591.9854,89.6564 593.2154,85.4024 C594.4424,81.1464 595.0604,76.4804 595.0604,71.4044 C595.0604,61.6904 592.6434,53.7784 587.8164,47.6704 L587.8164,47.6704 Z M515.5324,41.7644 C519.0414,43.4424 522.0924,45.7844 524.6834,48.7954 C527.2704,51.8064 529.2934,55.3744 530.7374,59.5004 C532.1844,63.6314 532.9084,68.0984 532.9084,72.9164 C532.9084,77.7344 532.1844,82.2014 530.7374,86.3324 C529.2934,90.4584 527.2704,94.0314 524.6834,97.0374 C522.0924,100.0484 519.0414,102.3904 515.5324,104.0684 C512.0184,105.7464 508.2064,106.5854 504.0804,106.5854 C499.9544,106.5854 496.1304,105.7464 492.6264,104.0684 C489.1144,102.3904 486.0624,100.0484 483.4754,97.0374 C480.8844,94.0314 478.8654,90.4584 477.4174,86.3324 C475.9694,82.2014 475.2464,77.7344 475.2464,72.9164 C475.2464,68.0984 475.9694,63.6314 477.4174,59.5004 C478.8654,55.3744 480.8844,51.8064 483.4754,48.7954 C486.0624,45.7844 489.1144,43.4424 492.6264,41.7644 C496.1304,40.0864 499.9544,39.2524 504.0804,39.2524 C508.2064,39.2524 512.0184,40.0864 515.5324,41.7644 L515.5324,41.7644 Z M487.3574,51.7594 C483.3234,56.9234 481.3044,63.9724 481.3044,72.9164 C481.3044,81.8604 483.3234,88.8914 487.3574,94.0084 C491.3964,99.1254 496.9704,101.6794 504.0804,101.6794 C511.1894,101.6794 516.7854,99.1034 520.8664,93.9394 C524.9464,88.7844 526.9884,81.7734 526.9884,72.9164 C526.9884,63.9724 524.9464,56.9234 520.8664,51.7594 C516.7854,46.6004 511.1894,44.0234 504.0804,44.0234 C496.9704,44.0234 491.3964,46.6004 487.3574,51.7594 L487.3574,51.7594 Z M457.8874,16.8714 L457.8874,40.5744 L473.7854,40.5514 L473.7854,45.7114 L457.8874,45.7344 L457.8874,92.8154 C457.8874,95.6544 458.6134,97.7194 460.0604,99.0104 C461.5074,100.3014 463.8544,100.9434 467.1044,100.9434 C467.9764,100.9434 468.8794,100.8774 469.8014,100.7494 C470.7234,100.6194 472.0604,100.4264 473.8174,100.1684 L473.8174,104.8164 C470.2164,105.4144 467.4094,105.7184 465.3894,105.7184 C456.5274,105.7184 452.0954,101.9344 452.0954,94.3634 L452.0954,45.7344 L438.7974,45.7344 L438.7974,40.5744 L452.0954,40.5744 L452.0954,16.7294 L457.8874,16.8714 L457.8874,16.8714 Z M390.9994,86.9134 C391.5044,89.0164 391.3144,88.2784 391.9474,90.1774 C392.5854,92.0914 393.7454,93.8984 395.2364,95.6584 C396.7294,97.4204 398.7924,98.8624 401.4234,99.9794 C404.0574,101.0994 407.3044,101.6574 411.1684,101.6574 C416.6964,101.6574 421.1934,100.4074 424.6624,97.9134 C428.1284,95.4244 429.8634,92.1964 429.8634,88.2414 C429.8634,84.8014 428.4354,82.0264 425.5824,79.9194 C422.7294,77.8134 417.7064,75.8164 410.5094,73.9214 C406.9984,72.9764 404.1014,72.0964 401.8194,71.2794 C399.5374,70.4594 397.4294,69.4084 395.4994,68.1174 C393.5704,66.8264 392.0334,65.2174 390.8924,63.2814 C389.7504,61.3494 389.1804,59.0494 389.1804,56.3794 C389.1804,51.0494 391.2224,46.7894 395.3024,43.6084 C399.3844,40.4324 404.8034,38.8414 411.5634,38.8414 C417.3554,38.8414 421.9754,40.1784 425.6484,42.5154 C429.6704,45.0744 434.6424,51.1094 435.6554,57.9654 L429.4924,57.9654 C428.2494,52.0314 425.5374,48.8374 422.6864,46.6424 C419.8324,44.4474 415.9954,43.3504 411.1684,43.3504 C406.4294,43.3504 402.5214,44.4474 399.4504,46.6424 C396.3764,48.8374 394.8434,51.6074 394.8434,54.9644 C394.8434,58.4034 396.0714,61.0724 398.5294,62.9574 C400.9854,64.8534 405.4604,66.5684 411.9574,68.1174 C415.2044,68.8924 418.0564,69.6884 420.5124,70.5054 C422.9704,71.3214 425.3844,72.4604 427.7554,73.9214 C430.1254,75.3874 432.0334,77.2954 433.4814,79.6604 C434.9324,82.0264 435.6554,84.8434 435.6554,88.1114 C435.6554,93.3594 433.4154,97.6784 428.9394,101.0754 C424.4644,104.4694 418.7144,106.1704 411.6964,106.1704 C407.1294,106.1704 403.2244,105.5904 399.9774,104.4324 C396.7294,103.2714 394.0724,101.7404 392.0124,99.8504 C389.9494,97.9604 388.3464,95.9354 387.2074,93.7874 C386.0634,91.6394 385.3644,89.2364 384.8364,86.9134 L390.9994,86.9134 Z M333.7154,53.0234 C335.6054,50.2424 337.5534,48.0574 340.6274,46.2504 C343.6994,44.4434 347.6474,43.5434 352.4754,43.5434 C353.8784,43.5434 355.5464,43.7334 357.4784,44.1194 C359.4084,44.5074 361.5824,45.4994 363.9954,47.0894 C366.4084,48.6804 368.4924,51.2574 370.2494,54.8304 C372.0034,58.3994 372.9244,61.0274 373.0134,66.9604 L329.4374,66.9604 C329.4374,63.8574 331.2594,56.6364 333.7154,53.0234 L333.7154,53.0234 Z M373.4084,87.0104 C370.4244,96.4754 363.9734,101.2004 354.0544,101.2004 C346.6834,101.2004 340.8894,99.1404 336.6764,95.0094 C334.2194,92.5154 332.4424,89.6974 331.3474,86.5634 C330.2494,83.4234 329.6104,77.1074 329.4374,71.8614 L378.6754,71.8614 C378.6754,67.2174 378.4994,65.7754 378.1484,63.2764 C377.7954,60.7824 377.0934,58.2464 376.0404,55.6644 C373.8474,50.1644 370.6424,45.9734 366.4304,43.0874 C362.2184,40.2104 357.2144,38.7684 351.4194,38.7684 C342.9964,38.7684 336.2384,41.7784 331.1484,47.7994 C326.0574,53.8204 323.5134,61.8144 323.5134,71.7924 C323.5134,82.8834 326.0144,91.3754 331.0174,97.2684 C336.0204,103.1544 343.3034,106.1024 352.8714,106.1024 C361.5614,106.1024 368.3604,103.3544 373.2774,97.8494 C374.2414,96.7294 375.0324,95.6124 375.6454,94.4924 C376.2594,93.3774 378.1844,88.9744 378.9754,86.9134 L373.4084,87.0104 Z M315.6334,104.2994 L309.8414,104.2994 L309.8414,64.8254 C309.8414,58.1214 308.3054,52.8514 305.2324,49.0264 C302.1594,45.1994 297.9464,43.2864 292.5934,43.2864 C289.6974,43.2864 286.8664,43.8394 284.1694,45.0884 C277.6874,48.0904 270.4754,56.3144 270.4754,72.2804 L270.4754,104.2994 L264.8154,104.2994 L264.8154,40.5754 L270.4754,40.5754 L270.4754,52.7184 C271.2664,50.9114 276.9894,38.5094 293.3844,38.5094 C300.3174,38.5094 305.7594,40.7494 309.7094,45.2174 C313.6584,49.6894 315.6334,55.8814 315.6334,63.7924 L315.6334,104.2994 L315.6334,104.2994 Z M238.5414,41.2854 C242.0504,42.9634 245.1014,45.3054 247.6904,48.3154 C250.2794,51.3264 252.3004,54.8944 253.7464,59.0204 C255.1964,63.1524 255.9194,67.6194 255.9194,72.4364 C255.9194,77.2544 255.1964,81.7224 253.7464,85.8534 C252.3004,89.9794 250.2794,93.5524 247.6904,96.5584 C245.1014,99.5694 242.0504,101.9104 238.5414,103.5884 C235.0314,105.2674 231.2124,106.1064 227.0864,106.1064 C222.9614,106.1064 219.1454,105.2674 215.6344,103.5884 C212.1234,101.9104 209.0724,99.5694 206.4834,96.5584 C203.8944,93.5524 201.8754,89.9794 200.4274,85.8534 C198.9794,81.7224 198.2564,77.2544 198.2564,72.4364 C198.2564,67.6194 198.9794,63.1524 200.4274,59.0204 C201.8754,54.8944 203.8944,51.3264 206.4834,48.3154 C209.0724,45.3054 212.1234,42.9634 215.6344,41.2854 C219.1454,39.6074 222.9614,38.7724 227.0864,38.7724 C231.2124,38.7724 235.0314,39.6074 238.5414,41.2854 L238.5414,41.2854 Z M210.3684,51.2804 C206.3314,56.4444 204.3124,63.4924 204.3124,72.4364 C204.3124,81.3804 206.3314,88.4114 210.3684,93.5284 C214.4024,98.6464 219.9784,101.1994 227.0864,101.1994 C234.1964,101.1994 239.7914,98.6234 243.8744,93.4594 C247.9544,88.3054 249.9964,81.2934 249.9964,72.4364 C249.9964,63.4924 247.9544,56.4444 243.8744,51.2804 C239.7914,46.1204 234.1964,43.5444 227.0864,43.5444 C219.9784,43.5444 214.4024,46.1204 210.3684,51.2804 L210.3684,51.2804 Z" id="Fill-1" fill="#56043E" mask="url(#mask-2)"></path>
            </g>
        </g>
    </g>
</svg>