<?xml version="1.0" encoding="UTF-8" standalone="no"?>
<svg width="161px" height="42px" viewBox="0 0 161 42" version="1.1" xmlns="http://www.w3.org/2000/svg" xmlns:xlink="http://www.w3.org/1999/xlink">
    <!-- Generator: Sketch 45.1 (43504) - http://www.bohemiancoding.com/sketch -->
    <title>Page 1</title>
    <desc>Created with Sketch.</desc>
    <defs></defs>
    <g id="Symbols" stroke="none" stroke-width="1" fill="none" fill-rule="evenodd">
        <g id="Footer" transform="translate(-140.000000, -418.000000)" fill="#FFFFFF">
            <g id="Page-1">
                <g transform="translate(140.000000, 418.000000)">
                    <path d="M141.865481,38.5511719 C142.07704,38.68268 142.250011,38.856575 142.379267,39.0695965 C142.510142,39.2826179 142.575984,39.5407433 142.575984,39.8352781 C142.575984,40.3088703 142.37333,40.7033947 141.973689,41.0087979 C141.579176,41.3093102 141.068358,41.4622835 140.45581,41.4622835 C140.059407,41.4622835 139.714545,41.4098433 139.431207,41.3082234 C139.144901,41.2044298 138.907168,41.0677592 138.724213,40.8987549 C138.542607,40.7305658 138.400668,40.5493346 138.300016,40.3572349 C138.213126,40.1947517 138.149442,40.006456 138.089806,39.7472437 L138.069838,39.6573073 L138.74661,39.6573073 L138.766578,39.74507 C138.791134,39.8488636 138.791134,39.8488636 138.811373,39.9053795 L138.838627,39.9893382 C138.88612,40.1319865 138.97301,40.2787104 139.106044,40.4363028 C139.225855,40.5781359 139.394778,40.6968736 139.607686,40.7870817 C139.823023,40.8786483 140.092868,40.9261977 140.411285,40.9261977 C140.865435,40.9261977 141.238631,40.8221324 141.521159,40.6178057 C141.799639,40.4161962 141.934022,40.1635049 141.934022,39.8466899 C141.934022,39.5719901 141.824465,39.3578818 141.599414,39.1902361 C141.364379,39.0147108 140.938563,38.8454349 140.335189,38.6864839 C140.028105,38.6025252 139.783085,38.527533 139.587718,38.4558013 C139.387222,38.384613 139.200759,38.290601 139.031566,38.1767541 C138.858596,38.0599184 138.718006,37.9121076 138.616005,37.736854 C138.511305,37.559155 138.459225,37.3474921 138.459225,37.1056693 C138.459225,36.6258277 138.644608,36.2359224 139.010518,35.9479088 C139.371302,35.6661445 139.854055,35.5232245 140.444746,35.5232245 C140.928579,35.5232245 141.346839,35.6338109 141.687653,35.8506362 C142.050865,36.0834926 142.485046,36.6157744 142.575984,37.2309281 L142.587048,37.3162454 L141.916482,37.3162454 L141.904339,37.2570124 C141.792353,36.7209266 141.534381,36.4693222 141.350617,36.327489 C141.120439,36.1484315 140.80418,36.0582234 140.411285,36.0582234 C140.024327,36.0582234 139.702132,36.14979 139.452255,36.3288476 C139.208045,36.5030143 139.089853,36.7173943 139.089853,36.9839428 C139.089853,37.2583709 139.183219,37.4637844 139.375889,37.6129538 C139.575305,37.7681008 139.952009,37.9121076 140.495747,38.0428006 C140.772068,38.1088264 141.019516,38.1791995 141.232424,38.2506595 C141.447491,38.3232063 141.661478,38.4245545 141.865481,38.5511719 L141.865481,38.5511719 Z M28.996223,0 L28.996223,14.8919365 L27.3768815,14.8919365 L27.3768815,1.63814562 L17.0118551,1.63814562 L17.0118551,19.0632438 L28.996223,19.0632438 L28.996223,39.9526572 L15.3925136,39.9526572 L15.3925136,26.5480667 L17.0118551,26.5480667 L17.0118551,38.3142399 L27.3768815,38.3142399 L27.3768815,20.7005743 L15.3925136,20.7005743 L15.3925136,0 L28.996223,0 Z M31.1549851,26.6116471 L44.3690379,26.6116471 L44.3690379,13.3056877 L31.1549851,13.3056877 L31.1549851,26.6116471 Z M32.7740567,24.9808377 L42.7502361,24.9808377 L42.7502361,14.9367688 L32.7740567,14.9367688 L32.7740567,24.9808377 Z M0,26.6116471 L13.2143226,26.6116471 L13.2143226,13.3056877 L0,13.3056877 L0,26.6116471 Z M1.61934144,24.9808377 L11.5949812,24.9808377 L11.5949812,14.9367688 L1.61934144,14.9367688 L1.61934144,24.9808377 Z M130.953748,37.1192549 C130.953748,37.4238429 130.839334,37.6580578 130.604299,37.8382022 C130.359009,38.0262262 130.021973,38.1215968 129.601554,38.1215968 L127.98653,38.1215968 L127.98653,36.1345742 L129.776683,36.1345742 C130.119117,36.1345742 130.397867,36.2299448 130.625617,36.4255767 C130.84662,36.613329 130.953748,36.839936 130.953748,37.1192549 L130.953748,37.1192549 Z M130.476122,38.6373043 C130.58433,38.6022535 130.675268,38.5677462 130.747317,38.5337824 C130.855525,38.4807987 130.966161,38.407165 131.083004,38.3093491 C131.459978,38.0012288 131.650489,37.604259 131.650489,37.1282214 C131.650489,36.648108 131.472391,36.2511382 131.119433,35.949539 C130.772143,35.6522872 130.320691,35.5033896 129.776683,35.5033896 L127.289789,35.5033896 L127.289789,41.4799447 L127.98653,41.4799447 L127.98653,38.7603893 L129.786668,38.7603893 L131.197689,41.4799447 L131.931668,41.4799447 L130.476122,38.6373043 Z M120.447323,38.5824186 C120.447323,38.7804959 120.41845,39.0171562 120.362052,39.285335 C120.307003,39.5494381 120.204192,39.8187037 120.055238,40.0868824 C119.91222,40.3460947 119.703629,40.5694412 119.436213,40.7484987 C119.173114,40.9248392 118.835807,41.0139604 118.433468,41.0139604 C118.156067,41.0139604 117.895936,40.9539122 117.660631,40.8359897 C117.424786,40.7194256 117.217005,40.5482477 117.044574,40.3259881 C116.867556,40.0993811 116.730204,39.828757 116.635759,39.5219953 C116.539694,39.2127882 116.491391,38.8696172 116.491391,38.5033507 C116.491391,38.1327369 116.538614,37.7882074 116.632251,37.4787285 C116.724538,37.1746839 116.858651,36.9100374 117.031622,36.6934838 C117.202973,36.4793755 117.408326,36.3128166 117.643631,36.1976112 C117.879206,36.0834926 118.144733,36.0245313 118.433468,36.0245313 C118.739742,36.0245313 119.019302,36.0834926 119.264861,36.198698 C119.51015,36.3141752 119.722249,36.4831794 119.89441,36.70082 C120.069809,36.9241664 120.206891,37.1969642 120.302416,37.5099753 C120.398751,37.8322246 120.447323,38.1916982 120.447323,38.5824186 L120.447323,38.5824186 Z M120.960299,37.2885308 C120.834011,36.8975387 120.648897,36.5543677 120.411164,36.2663541 C120.17289,35.9780687 119.883077,35.7528203 119.549278,35.5974016 C118.881141,35.2841188 118.044081,35.2879228 117.385659,35.5922391 C117.056717,35.7452124 116.766903,35.9666568 116.523503,36.2538554 C116.282801,36.5383368 116.096338,36.8763453 115.968971,37.2597295 C115.842414,37.6403966 115.77873,38.0626355 115.77873,38.5112303 C115.77873,38.9557495 115.844302,39.3769016 115.973828,39.7586556 C116.103624,40.1458437 116.290087,40.4852108 116.527281,40.7683336 C116.766903,41.0555322 117.056717,41.2780635 117.389167,41.4334822 C117.720267,41.5889008 118.082399,41.6679687 118.46504,41.6679687 C118.846601,41.6679687 119.207114,41.5902594 119.537944,41.4375578 C119.866886,41.2845845 120.15616,41.0642269 120.397402,40.7821909 C120.637834,40.5004266 120.825646,40.1645918 120.956521,39.783653 C121.085777,39.4043444 121.151619,38.9918871 121.151619,38.5587798 C121.151619,38.1017619 121.087666,37.6740888 120.960299,37.2885308 L120.960299,37.2885308 Z M109.719894,35.5033896 L109.719894,36.1750592 L107.863629,36.1750592 L107.863629,41.4799447 L107.174174,41.4799447 L107.174174,36.1750592 L105.317909,36.1750592 L105.317909,35.5033896 L109.719894,35.5033896 Z M99.2463901,39.699966 C99.2463901,39.699966 99.1028324,40.2724611 98.7849547,40.6656269 C98.6656831,40.8123508 98.521046,40.9639655 98.3302654,41.1193842 C98.1384054,41.2742595 97.9063385,41.4046808 97.6391917,41.5087461 C97.3674575,41.6149851 97.0671197,41.6679687 96.7473531,41.6679687 C95.9569763,41.6679687 95.3077286,41.3948992 94.8176896,40.8558246 C94.3316983,40.3210973 94.0847898,39.553242 94.0847898,38.5750824 C94.0847898,38.1101849 94.1446955,37.6768059 94.262348,37.2871723 C94.3813498,36.8937348 94.5564794,36.5481184 94.7828795,36.2622784 C95.012248,35.9734496 95.2888394,35.7479295 95.6053679,35.5935976 C95.9235155,35.4395375 96.2753937,35.3620999 96.651558,35.3620999 C96.9804994,35.3620999 97.2789482,35.4082907 97.5390791,35.5006725 C97.7962416,35.5911522 98.0191338,35.7074445 98.201819,35.8454737 C98.3828852,35.9818726 98.5178079,36.1345742 98.6389684,36.2687995 C98.9768146,36.6434889 99.1686746,37.2059307 99.1686746,37.2059307 L98.4290288,37.2083761 L98.3402497,37.0328508 C98.2862806,36.9276986 98.2147716,36.8198294 98.1270719,36.7122318 C98.0366737,36.6005586 97.9238784,36.4902439 97.7913844,36.3837332 C97.6605094,36.2802113 97.5002214,36.1910901 97.3151075,36.1223472 C96.9116888,35.9693739 96.3442042,35.9767101 95.9189281,36.1900033 C95.6898295,36.3038502 95.4904138,36.4706807 95.3276971,36.6834304 C95.1620121,36.9013427 95.0324864,37.1681629 94.9426279,37.4776417 C94.8514202,37.7920113 94.8052767,38.147681 94.8052767,38.5348692 C94.8052767,39.3279936 94.9787872,39.9480381 95.3212208,40.3765264 C95.6598766,40.7995804 96.1296773,41.0049939 96.756258,41.0049939 C97.0225952,41.0049939 97.2600591,40.9653241 97.4605541,40.8862562 C97.6626682,40.8088186 97.8278135,40.7107309 97.9511328,40.5979708 C98.0787696,40.4814068 98.1799616,40.3664731 98.2522801,40.2550715 C98.3281066,40.1385075 98.3939489,40.0192264 98.4484576,39.9004887 L98.5393955,39.7024114 L99.2463901,39.699966 Z M87.2547363,38.5824186 C87.2547363,38.7818545 87.2264026,39.0185148 87.1702748,39.285335 C87.1154962,39.5483512 87.0132248,39.8176168 86.8645401,40.0855239 C86.7201729,40.3460947 86.5110428,40.5694412 86.243896,40.7484987 L86.2436261,40.7484987 C85.9807968,40.9248392 85.6437601,41.0139604 85.2408811,41.0139604 C84.9642897,41.0139604 84.7041589,40.9539122 84.4688538,40.8373482 C84.2332789,40.7194256 84.0257679,40.5482477 83.8522574,40.3259881 C83.6757786,40.0993811 83.5384273,39.828757 83.4434418,39.5219953 C83.3481864,39.2127882 83.2998841,38.8696172 83.2998841,38.5033507 C83.2998841,38.1313784 83.347107,37.7868488 83.4402037,37.4787285 C83.5322209,37.1746839 83.6666038,36.9100374 83.839035,36.6934838 C84.0106566,36.4793755 84.2162786,36.3128166 84.4515837,36.1976112 C84.6866189,36.0834926 84.9524165,36.0245313 85.2408811,36.0245313 C85.5466158,36.0245313 85.8267152,36.0834926 86.0730839,36.198698 C86.3172939,36.3141752 86.5293923,36.4831794 86.7026329,36.70082 C86.8783022,36.9228078 87.0148439,37.1958774 87.1095596,37.5099753 C87.2058943,37.8295074 87.2547363,38.1903397 87.2547363,38.5824186 L87.2547363,38.5824186 Z M87.7690614,37.2885308 C87.6416944,36.8964519 87.4565806,36.5530092 87.2188469,36.2663541 C86.979764,35.9767101 86.69022,35.7528203 86.3575008,35.5974016 C85.6893639,35.2841188 84.8536532,35.2865642 84.1922624,35.5922391 C83.8630512,35.7465709 83.5732374,35.9680154 83.3317259,36.2538554 C83.0915636,36.5383368 82.9051005,36.8763453 82.7774637,37.2597295 C82.6509063,37.6393097 82.5864132,38.0599184 82.5864132,38.5112303 C82.5864132,38.9557495 82.6517158,39.375543 82.7809717,39.7600141 C82.9126562,40.1472023 83.0991192,40.4865693 83.3346942,40.7683336 C83.5740469,41.0555322 83.8644004,41.2780635 84.1971196,41.4334822 C84.5282198,41.5889008 84.8903521,41.6679687 85.2727229,41.6679687 C85.6548238,41.6679687 86.0156069,41.5902594 86.3450879,41.4375578 C86.6737595,41.2856714 86.9633034,41.0642269 87.2061642,40.7808323 C87.4463265,40.499068 87.6341388,40.1635049 87.7647439,39.783653 C87.8945395,39.4043444 87.959842,38.9918871 87.959842,38.5587798 C87.959842,38.1028487 87.8956188,37.6740888 87.7690614,37.2885308 L87.7690614,37.2885308 Z M72.2232757,36.1511486 L73.4872309,36.1511486 C74.1545582,36.1511486 74.6723913,36.3340101 75.0307458,36.6972877 C75.2290821,36.888844 75.3847828,37.148328 75.4932606,37.468947 C75.6044369,37.7971738 75.6605647,38.1628968 75.6605647,38.5585081 C75.6605647,38.9217857 75.6084845,39.2538165 75.5059433,39.5483512 C75.405291,39.8377235 75.2574158,40.084437 75.0677146,40.2808841 C74.8834103,40.468093 74.6651055,40.6044919 74.4190066,40.687092 C74.1645425,40.7734961 73.8404584,40.8172416 73.4553892,40.8172416 L72.2232757,40.8172416 L72.2232757,36.1511486 Z M76.1786676,37.3385257 C76.0531895,36.9605757 75.8691551,36.6296317 75.6306118,36.353845 C75.3915289,36.0796886 75.0998262,35.8666672 74.7630593,35.720215 C74.4289909,35.5762081 74.0563346,35.5033896 73.6548048,35.5033896 L71.5257257,35.5033896 L71.5257257,41.479673 L73.4078964,41.479673 C73.8901099,41.479673 74.3043224,41.422342 74.6389305,41.3106688 C74.9805546,41.1968219 75.2849401,41.0136887 75.5461503,40.7686053 C76.0901583,40.2360518 76.3659402,39.5059643 76.3659402,38.5987213 C76.3659402,38.1389863 76.3027964,37.7156605 76.1786676,37.3385257 L76.1786676,37.3385257 Z M158.318487,23.6605939 C157.903195,24.7466228 156.606589,27.218106 153.28992,27.218106 C145.622807,27.218106 146.255864,11.830297 153.28992,11.830297 C158.369488,11.830297 158.94048,17.193057 158.94048,19.5066761 C158.94048,21.1891107 158.73135,22.5732065 158.318487,23.6605939 L158.318487,23.6605939 Z M158.619364,12.9527351 C157.980101,12.1821627 157.222375,11.5797794 156.345108,11.1477589 C155.469461,10.7154667 154.510161,10.4999999 153.469098,10.4999999 C152.6628,10.4999999 151.952567,10.6162922 151.33786,10.8494202 C150.720724,11.0836351 150.182112,11.3882232 149.720407,11.7615541 C149.258972,12.1346133 148.873633,12.5318548 148.566279,12.9527351 C148.258655,13.3736154 147.914333,13.8874209 147.53628,14.494695 L147.53628,11.0249456 L146.008416,11.0249456 L146.008416,34.3809514 L147.53628,34.3809514 L147.53628,24.6941826 C147.86684,25.3250955 148.139384,25.7976009 148.352022,26.1136008 C148.566279,26.4290573 148.849886,26.7507631 149.205542,27.0779032 C150.460863,28.2454453 151.929091,28.8304391 153.610766,28.8304391 C154.628353,28.8304391 155.564176,28.6024736 156.417427,28.1465425 C157.269598,27.6903398 158.009784,27.0414939 158.636904,26.2010918 C159.265104,25.3604179 159.744349,24.3607932 160.076259,23.2049346 C160.407359,22.0485325 160.574123,20.780729 160.574123,19.401524 C160.574123,16.7621233 159.921907,14.6123459 158.619364,12.9527351 L158.619364,12.9527351 Z M139.113869,11.3480099 C140.060756,11.803941 140.884054,12.4402882 141.583223,13.25841 C142.281313,14.0765318 142.82721,15.0459966 143.216866,16.1670762 C143.607333,17.2895144 143.802701,18.5032474 143.802701,19.812351 C143.802701,21.1214546 143.607333,22.3351877 143.216866,23.4576258 C142.82721,24.5787054 142.281313,25.5495288 141.583223,26.3662921 C140.884054,27.1844139 140.060756,27.820761 139.113869,28.2766921 C138.165633,28.7326232 137.136983,28.9605887 136.023601,28.9605887 C134.91022,28.9605887 133.878331,28.7326232 132.932794,28.2766921 C131.985097,27.820761 131.161529,27.1844139 130.46344,26.3662921 C129.76427,25.5495288 129.219453,24.5787054 128.828717,23.4576258 C128.437981,22.3351877 128.242883,21.1214546 128.242883,19.812351 C128.242883,18.5032474 128.437981,17.2895144 128.828717,16.1670762 C129.219453,15.0459966 129.76427,14.0765318 130.46344,13.25841 C131.161529,12.4402882 131.985097,11.803941 132.932794,11.3480099 C133.878331,10.8920789 134.91022,10.6654719 136.023601,10.6654719 C137.136983,10.6654719 138.165633,10.8920789 139.113869,11.3480099 L139.113869,11.3480099 Z M131.510979,14.0637614 C130.422423,15.466877 129.877605,17.3821678 129.877605,19.812351 C129.877605,22.2425342 130.422423,24.1529342 131.510979,25.5432794 C132.600884,26.9336246 134.105001,27.6275745 136.023601,27.6275745 C137.941931,27.6275745 139.451985,26.927647 140.553224,25.5245314 C141.654193,24.1238612 142.205217,22.2188953 142.205217,19.812351 C142.205217,17.3821678 141.654193,15.466877 140.553224,14.0637614 C139.451985,12.6620043 137.941931,11.9618051 136.023601,11.9618051 C134.105001,11.9618051 132.600884,12.6620043 131.510979,14.0637614 L131.510979,14.0637614 Z M123.558639,4.584308 L123.558639,11.0246738 L127.848639,11.0184245 L127.848639,12.4204532 L123.558639,12.4267026 L123.558639,25.2191282 C123.558639,25.9905157 123.754547,26.551599 124.145013,26.9023779 C124.535479,27.2531568 125.168806,27.4275952 126.045803,27.4275952 C126.281108,27.4275952 126.524778,27.4096623 126.773575,27.3748833 C127.022373,27.3395609 127.383156,27.2871206 127.857274,27.2170192 L127.857274,28.4799319 C126.885561,28.6424151 126.128106,28.7250152 125.583018,28.7250152 C123.191649,28.7250152 121.995695,27.6968608 121.995695,25.6397368 L121.995695,12.4267026 L118.407293,12.4267026 L118.407293,11.0246738 L121.995695,11.0246738 L121.995695,4.54572504 L123.558639,4.584308 L123.558639,4.584308 Z M105.509229,23.6154899 C105.645501,24.1868981 105.59423,23.9863754 105.765042,24.5023546 C105.937203,25.0224094 106.250224,25.5133912 106.652563,25.9916026 C107.055442,26.4703574 107.612133,26.8621646 108.322096,27.1656658 C109.032868,27.4699821 109.909056,27.6215969 110.951738,27.6215969 C112.443443,27.6215969 113.656937,27.2819581 114.59303,26.6043109 C115.528314,25.9280222 115.996495,25.0509391 115.996495,23.9763221 C115.996495,23.0416363 115.611156,22.2876382 114.841288,21.7151431 C114.071419,21.1429198 112.715986,20.6003129 110.77391,20.0854206 C109.826483,19.8286537 109.044741,19.589548 108.428955,19.3675601 C107.813168,19.1447571 107.244334,18.8591888 106.723533,18.5084099 C106.203001,18.157631 105.788249,17.720448 105.480355,17.1944155 C105.172192,16.6694699 105.01838,16.0445346 105.01838,15.3190662 C105.01838,13.8708466 105.569404,12.7133577 106.670373,11.849045 C107.771881,10.9860909 109.234173,10.5537987 111.058327,10.5537987 C112.621271,10.5537987 113.867956,10.9170763 114.859097,11.5520649 C115.944415,12.2473733 117.286086,13.8871492 117.559439,15.7499998 L115.896383,15.7499998 C115.560965,14.1376668 114.829145,13.2698218 114.059816,12.6734162 C113.289677,12.0770105 112.254281,11.7789436 110.951738,11.7789436 C109.672941,11.7789436 108.618386,12.0770105 107.789691,12.6734162 C106.960187,13.2698218 106.546514,14.0224613 106.546514,14.9345951 C106.546514,15.8690093 106.877884,16.5942059 107.541164,17.1063812 C108.203904,17.6215452 109.411461,18.0875296 111.164646,18.5084099 C112.040833,18.7189859 112.810432,18.9352679 113.473172,19.1572558 C114.136452,19.378972 114.787858,19.6884508 115.427661,20.0854206 C116.067195,20.4837489 116.582059,21.0021735 116.972795,21.64477 C117.364341,22.2876382 117.559439,23.0530481 117.559439,23.9409997 C117.559439,25.366939 116.954986,26.5404588 115.747158,27.4634611 C114.539601,28.3856482 112.98799,28.8478286 111.094216,28.8478286 C109.861833,28.8478286 108.808087,28.6902362 107.9319,28.3755949 C107.055442,28.0601384 106.338463,27.6441489 105.782582,27.1306151 C105.225891,26.6170813 104.793329,26.0668665 104.485976,25.4832313 C104.177273,24.8995961 103.988651,24.2466745 103.846172,23.6154899 L105.509229,23.6154899 Z M90.0514127,14.4072041 C90.5614202,13.6515758 91.0870788,13.0578873 91.9165831,12.5669055 C92.7455478,12.0759237 93.8108969,11.8313838 95.1137098,11.8313838 C95.4923027,11.8313838 95.9424046,11.8830089 96.4637457,11.9878893 C96.9845471,12.0933132 97.5711907,12.3628505 98.2223273,12.794871 C98.8734639,13.2271632 99.4358214,13.9273625 99.9099396,14.8981859 C100.383248,15.8679224 100.631776,16.5819789 100.655792,18.1940403 L88.8970146,18.1940403 C88.8970146,17.3509211 89.3886727,15.3888959 90.0514127,14.4072041 L90.0514127,14.4072041 Z M100.762381,23.6418459 C99.9571625,26.2135905 98.2163907,27.4974249 95.5397955,27.4974249 C93.5507661,27.4974249 91.9872826,26.9377003 90.8504245,25.8152621 C90.1874147,25.1376149 89.7078996,24.3719333 89.4124191,23.520391 C89.116129,22.6672185 88.9436978,20.9510918 88.8970146,19.5256959 L102.183656,19.5256959 C102.183656,18.26387 102.136163,17.8720628 102.041447,17.193057 C101.946192,16.5154097 101.756761,15.8263506 101.472614,15.1247928 C100.880843,13.6303823 100.015989,12.4916415 98.8794005,11.7074836 C97.7428122,10.925771 96.3925065,10.5339638 94.8287532,10.5339638 C92.5558466,10.5339638 90.7322323,11.3518139 89.3587199,12.9877858 C87.9849376,14.6237578 87.2984513,16.7958155 87.2984513,19.5069478 C87.2984513,22.5204946 87.9733343,24.8278644 89.3233701,26.4290573 C90.673406,28.0283482 92.6386891,28.8293523 95.2205686,28.8293523 C97.5655239,28.8293523 99.4002019,28.0826904 100.727031,26.5869214 C100.987162,26.2826051 101.200609,25.9791039 101.366025,25.6747876 C101.53171,25.3718298 102.051162,24.1754863 102.264609,23.6154899 L100.762381,23.6418459 Z M85.1720706,28.3394573 L83.6091268,28.3394573 L83.6091268,17.6139373 C83.6091268,15.7923868 83.1946445,14.3604698 82.36541,13.3211752 C81.5361755,12.2813372 80.3993174,11.7615541 78.9548357,11.7615541 C78.1733638,11.7615541 77.4094318,11.9118103 76.6816592,12.2511773 C74.9325221,13.0668537 72.9863981,15.301405 72.9863981,19.6395428 L72.9863981,28.3394573 L71.4590739,28.3394573 L71.4590739,11.0249456 L72.9863981,11.0249456 L72.9863981,14.3243322 C73.1998457,13.8333505 74.7441701,10.4635906 79.1682833,10.4635906 C81.0391205,10.4635906 82.5076184,11.0722233 83.5735072,12.286228 C84.6391262,13.5013196 85.1720706,15.1837541 85.1720706,17.3332598 L85.1720706,28.3394573 L85.1720706,28.3394573 Z M64.3691594,11.2178604 C65.3160464,11.6737914 66.1393443,12.3101386 66.8379737,13.1279887 C67.5366031,13.9461105 68.0819604,14.9155754 68.4721566,16.036655 C68.8634323,17.1593648 69.0585304,18.3730978 69.0585304,19.6819297 C69.0585304,20.9910333 68.8634323,22.2050381 68.4721566,23.3274762 C68.0819604,24.4485558 67.5366031,25.4193792 66.8379737,26.2361425 C66.1393443,27.0542643 65.3160464,27.6903398 64.3691594,28.1462708 C63.4220025,28.6024736 62.3914634,28.8304391 61.2780819,28.8304391 C60.1649702,28.8304391 59.1352406,28.6024736 58.1878139,28.1462708 C57.2403872,27.6903398 56.4170893,27.0542643 55.7184599,26.2361425 C55.0198305,25.4193792 54.4750129,24.4485558 54.084277,23.3274762 C53.693541,22.2050381 53.4984429,20.9910333 53.4984429,19.6819297 C53.4984429,18.3730978 53.693541,17.1593648 54.084277,16.036655 C54.4750129,14.9155754 55.0198305,13.9461105 55.7184599,13.1279887 C56.4170893,12.3101386 57.2403872,11.6737914 58.1878139,11.2178604 C59.1352406,10.7619293 60.1649702,10.5350506 61.2780819,10.5350506 C62.3914634,10.5350506 63.4220025,10.7619293 64.3691594,11.2178604 L64.3691594,11.2178604 Z M56.7668087,13.9336118 C55.6774434,15.3367274 55.1326258,17.2517465 55.1326258,19.6819297 C55.1326258,22.1121129 55.6774434,24.022513 56.7668087,25.4128582 C57.8553645,26.8034751 59.3600217,27.4971532 61.2780819,27.4971532 C63.1966817,27.4971532 64.706466,26.7972257 65.8082442,25.3941101 C66.9092129,23.9937116 67.4602369,22.0884741 67.4602369,19.6819297 C67.4602369,17.2517465 66.9092129,15.3367274 65.8082442,13.9336118 C64.706466,12.531583 63.1966817,11.8316555 61.2780819,11.8316555 C59.3600217,11.8316555 57.8553645,12.531583 56.7668087,13.9336118 L56.7668087,13.9336118 Z" id="Fill-1"></path>
                </g>
            </g>
        </g>
    </g>
</svg>